<svg width="512" height="512" viewBox="0 0 512 512" fill="none" xmlns="http://www.w3.org/2000/svg" role="img" aria-label="AutoWash Pro">
  <defs>
    <linearGradient id="awp-grad" x1="0" y1="0" x2="1" y2="1">
      <stop offset="0" stop-color="#0284c7"/>
      <stop offset="1" stop-color="#0ea5e9"/>
    </linearGradient>
  </defs>
  <!-- Rounded square matching landing .brand-logo-icon (radius ~26%) -->
  <rect x="0" y="0" width="512" height="512" rx="128" ry="128" fill="url(#awp-grad)"/>
  <!-- Font Awesome "car-side" (solid), white, scaled and centered -->
  <g transform="translate(106 136) scale(0.469)" fill="#ffffff">
    <path d="M171.3 96H224v96H111.3l30.4-75.9C146.5 104 158.2 96 171.3 96zM272 192V96h81.2c9.7 0 18.9 4.4 25 12l67.2 84H272zm256.2 1L428.2 68c-18.2-22.8-45.8-36-75-36H171.3c-39.3 0-74.6 23.9-89.1 60.3L40.6 196.4C16.8 205.8 0 228.9 0 256V368c0 17.7 14.3 32 32 32H65.3c7.6 45.4 47.1 80 94.7 80s87.1-34.6 94.7-80H385.3c7.6 45.4 47.1 80 94.7 80s87.1-34.6 94.7-80H608c17.7 0 32-14.3 32-32V320c0-65.2-48.8-119-111.8-127zM160 320a48 48 0 1 1 0 96 48 48 0 1 1 0-96zm272 48a48 48 0 1 1 96 0 48 48 0 1 1 -96 0z"/>
  </g>
</svg>
